# Tiled2Unity generated file. Do not modify by hand.
# Wavefront file for 'GrassMap4_mesh_0006.obj'

# Vertices (Count = 36)
v -1024 -768 0
v -1280 -768 0
v -1280 -512 0
v -1024 -512 0
v -768 -1024 0
v -1024 -1024 0
v -1024 -768 0
v -768 -768 0
v -512 -1280 0
v -768 -1280 0
v -768 -1024 0
v -512 -1024 0
v -1280 -1280 0
v -1536 -1280 0
v -1536 -1024 0
v -1280 -1024 0
v -256 -1536 0
v -512 -1536 0
v -512 -1280 0
v -256 -1280 0
v -1024 -1536 0
v -1280 -1536 0
v -1280 -1280 0
v -1024 -1280 0
v 0 -1792 0
v -256 -1792 0
v -256 -1536 0
v 0 -1536 0
v -768 -1792 0
v -1024 -1792 0
v -1024 -1536 0
v -768 -1536 0
v -2816 -1792 0
v -3072 -1792 0
v -3072 -1536 0
v -2816 -1536 0

# Texture cooridinates (Count = 4)
vt 0 0
vt 1 0
vt 1 1
vt 0 1

# Normal
vn 0 0 -1

# Mesh description
g GrassMap4_mesh_0006

# Faces
f 1/1/1 2/2/1 3/3/1 4/4/1
f 5/1/1 6/2/1 7/3/1 8/4/1
f 9/1/1 10/2/1 11/3/1 12/4/1
f 13/1/1 14/2/1 15/3/1 16/4/1
f 17/1/1 18/2/1 19/3/1 20/4/1
f 21/1/1 22/2/1 23/3/1 24/4/1
f 25/1/1 26/2/1 27/3/1 28/4/1
f 29/1/1 30/2/1 31/3/1 32/4/1
f 33/1/1 34/2/1 35/3/1 36/4/1

