# Tiled2Unity generated file. Do not modify by hand.
# Wavefront file for 'GrassMap2_mesh_0004.obj'

# Vertices (Count = 16)
v -3072 -512 0
v -3317 -512 0
v -3317 -407 0
v -3072 -407 0
v -2304 -768 0
v -2549 -768 0
v -2549 -663 0
v -2304 -663 0
v 0 -1024 0
v -245 -1024 0
v -245 -919 0
v 0 -919 0
v -1280 -1536 0
v -1525 -1536 0
v -1525 -1431 0
v -1280 -1431 0

# Texture cooridinates (Count = 4)
vt 0 0
vt 1 0
vt 1 1
vt 0 1

# Normal
vn 0 0 -1

# Mesh description
g GrassMap2_mesh_0004

# Faces
f 1/1/1 2/2/1 3/3/1 4/4/1
f 5/1/1 6/2/1 7/3/1 8/4/1
f 9/1/1 10/2/1 11/3/1 12/4/1
f 13/1/1 14/2/1 15/3/1 16/4/1

