# Tiled2Unity generated file. Do not modify by hand.
# Wavefront file for 'LevelSelectMap_mesh_0110.obj'

# Vertices (Count = 24)
v -3072 -1792 0
v -3507 -1792 0
v -3507 -1417 0
v -3072 -1417 0
v -3328 -2304 0
v -3763 -2304 0
v -3763 -1929 0
v -3328 -1929 0
v -2816 -2560 0
v -3251 -2560 0
v -3251 -2185 0
v -2816 -2185 0
v -3584 -2560 0
v -4019 -2560 0
v -4019 -2185 0
v -3584 -2185 0
v -2560 -2816 0
v -2995 -2816 0
v -2995 -2441 0
v -2560 -2441 0
v -3328 -3072 0
v -3763 -3072 0
v -3763 -2697 0
v -3328 -2697 0

# Texture cooridinates (Count = 4)
vt 0 0
vt 1 0
vt 1 1
vt 0 1

# Normal
vn 0 0 -1

# Mesh description
g LevelSelectMap_mesh_0110

# Faces
f 1/1/1 2/2/1 3/3/1 4/4/1
f 5/1/1 6/2/1 7/3/1 8/4/1
f 9/1/1 10/2/1 11/3/1 12/4/1
f 13/1/1 14/2/1 15/3/1 16/4/1
f 17/1/1 18/2/1 19/3/1 20/4/1
f 21/1/1 22/2/1 23/3/1 24/4/1

