# Tiled2Unity generated file. Do not modify by hand.
# Wavefront file for 'LevelSelectMap_mesh_0108.obj'

# Vertices (Count = 28)
v -3072 -1536 0
v -3222 -1536 0
v -3222 -1361 0
v -3072 -1361 0
v -3584 -2048 0
v -3734 -2048 0
v -3734 -1873 0
v -3584 -1873 0
v -3584 -2304 0
v -3734 -2304 0
v -3734 -2129 0
v -3584 -2129 0
v -3840 -2304 0
v -3990 -2304 0
v -3990 -2129 0
v -3840 -2129 0
v -3072 -2560 0
v -3222 -2560 0
v -3222 -2385 0
v -3072 -2385 0
v -3072 -3072 0
v -3222 -3072 0
v -3222 -2897 0
v -3072 -2897 0
v -3584 -3072 0
v -3734 -3072 0
v -3734 -2897 0
v -3584 -2897 0

# Texture cooridinates (Count = 4)
vt 0 0
vt 1 0
vt 1 1
vt 0 1

# Normal
vn 0 0 -1

# Mesh description
g LevelSelectMap_mesh_0108

# Faces
f 1/1/1 2/2/1 3/3/1 4/4/1
f 5/1/1 6/2/1 7/3/1 8/4/1
f 9/1/1 10/2/1 11/3/1 12/4/1
f 13/1/1 14/2/1 15/3/1 16/4/1
f 17/1/1 18/2/1 19/3/1 20/4/1
f 21/1/1 22/2/1 23/3/1 24/4/1
f 25/1/1 26/2/1 27/3/1 28/4/1

