# Tiled2Unity generated file. Do not modify by hand.
# Wavefront file for 'LevelSelectMap_mesh_0131.obj'

# Vertices (Count = 12)
v -3840 -1536 0
v -3900 -1536 0
v -3900 -1476 0
v -3840 -1476 0
v -1280 -1792 0
v -1340 -1792 0
v -1340 -1732 0
v -1280 -1732 0
v -2304 -2304 0
v -2364 -2304 0
v -2364 -2244 0
v -2304 -2244 0

# Texture cooridinates (Count = 4)
vt 0 0
vt 1 0
vt 1 1
vt 0 1

# Normal
vn 0 0 -1

# Mesh description
g LevelSelectMap_mesh_0131

# Faces
f 1/1/1 2/2/1 3/3/1 4/4/1
f 5/1/1 6/2/1 7/3/1 8/4/1
f 9/1/1 10/2/1 11/3/1 12/4/1

