# Tiled2Unity generated file. Do not modify by hand.
# Wavefront file for 'LevelSelectMap_mesh_0056.obj'

# Vertices (Count = 24)
v -1792 -768 0
v -2048 -768 0
v -2048 -512 0
v -1792 -512 0
v -2048 -768 0
v -2304 -768 0
v -2304 -512 0
v -2048 -512 0
v -2304 -768 0
v -2560 -768 0
v -2560 -512 0
v -2304 -512 0
v -3328 -768 0
v -3584 -768 0
v -3584 -512 0
v -3328 -512 0
v -3584 -768 0
v -3840 -768 0
v -3840 -512 0
v -3584 -512 0
v -3840 -768 0
v -4096 -768 0
v -4096 -512 0
v -3840 -512 0

# Texture cooridinates (Count = 4)
vt 0 0
vt 1 0
vt 1 1
vt 0 1

# Normal
vn 0 0 -1

# Mesh description
g LevelSelectMap_mesh_0056

# Faces
f 1/1/1 2/2/1 3/3/1 4/4/1
f 5/1/1 6/2/1 7/3/1 8/4/1
f 9/1/1 10/2/1 11/3/1 12/4/1
f 13/1/1 14/2/1 15/3/1 16/4/1
f 17/1/1 18/2/1 19/3/1 20/4/1
f 21/1/1 22/2/1 23/3/1 24/4/1

