# Tiled2Unity generated file. Do not modify by hand.
# Wavefront file for 'LevelSelectMap_mesh_0092.obj'

# Vertices (Count = 16)
v 0 -256 0
v -150 -256 0
v -150 -31 0
v 0 -31 0
v -512 -256 0
v -662 -256 0
v -662 -31 0
v -512 -31 0
v 0 -512 0
v -150 -512 0
v -150 -287 0
v 0 -287 0
v -512 -512 0
v -662 -512 0
v -662 -287 0
v -512 -287 0

# Texture cooridinates (Count = 4)
vt 0 0
vt 1 0
vt 1 1
vt 0 1

# Normal
vn 0 0 -1

# Mesh description
g LevelSelectMap_mesh_0092

# Faces
f 1/1/1 2/2/1 3/3/1 4/4/1
f 5/1/1 6/2/1 7/3/1 8/4/1
f 9/1/1 10/2/1 11/3/1 12/4/1
f 13/1/1 14/2/1 15/3/1 16/4/1

