# Tiled2Unity generated file. Do not modify by hand.
# Wavefront file for 'LevelSelectMap_mesh_0084.obj'

# Vertices (Count = 16)
v -1536 -256 0
v -1781 -256 0
v -1781 -151 0
v -1536 -151 0
v -3584 -256 0
v -3829 -256 0
v -3829 -151 0
v -3584 -151 0
v -768 -1024 0
v -1013 -1024 0
v -1013 -919 0
v -768 -919 0
v -1792 -2816 0
v -2037 -2816 0
v -2037 -2711 0
v -1792 -2711 0

# Texture cooridinates (Count = 4)
vt 0 0
vt 1 0
vt 1 1
vt 0 1

# Normal
vn 0 0 -1

# Mesh description
g LevelSelectMap_mesh_0084

# Faces
f 1/1/1 2/2/1 3/3/1 4/4/1
f 5/1/1 6/2/1 7/3/1 8/4/1
f 9/1/1 10/2/1 11/3/1 12/4/1
f 13/1/1 14/2/1 15/3/1 16/4/1

