# Tiled2Unity generated file. Do not modify by hand.
# Wavefront file for 'LevelSelectMap_mesh_0112.obj'

# Vertices (Count = 16)
v -3072 -2304 0
v -3372 -2304 0
v -3372 -1889 0
v -3072 -1889 0
v -3328 -2560 0
v -3628 -2560 0
v -3628 -2145 0
v -3328 -2145 0
v -3072 -2816 0
v -3372 -2816 0
v -3372 -2401 0
v -3072 -2401 0
v -3840 -2816 0
v -4140 -2816 0
v -4140 -2401 0
v -3840 -2401 0

# Texture cooridinates (Count = 4)
vt 0 0
vt 1 0
vt 1 1
vt 0 1

# Normal
vn 0 0 -1

# Mesh description
g LevelSelectMap_mesh_0112

# Faces
f 1/1/1 2/2/1 3/3/1 4/4/1
f 5/1/1 6/2/1 7/3/1 8/4/1
f 9/1/1 10/2/1 11/3/1 12/4/1
f 13/1/1 14/2/1 15/3/1 16/4/1

