# Tiled2Unity generated file. Do not modify by hand.
# Wavefront file for 'LevelSelectMap_mesh_0044.obj'

# Vertices (Count = 92)
v -2048 -768 0
v -2304 -768 0
v -2304 -512 0
v -2048 -512 0
v -2304 -768 0
v -2560 -768 0
v -2560 -512 0
v -2304 -512 0
v -2560 -768 0
v -2816 -768 0
v -2816 -512 0
v -2560 -512 0
v -2816 -768 0
v -3072 -768 0
v -3072 -512 0
v -2816 -512 0
v -2560 -1280 0
v -2816 -1280 0
v -2816 -1024 0
v -2560 -1024 0
v -2816 -1280 0
v -3072 -1280 0
v -3072 -1024 0
v -2816 -1024 0
v -3072 -1280 0
v -3328 -1280 0
v -3328 -1024 0
v -3072 -1024 0
v -3328 -1280 0
v -3584 -1280 0
v -3584 -1024 0
v -3328 -1024 0
v -3584 -1280 0
v -3840 -1280 0
v -3840 -1024 0
v -3584 -1024 0
v -2816 -2048 0
v -3072 -2048 0
v -3072 -1792 0
v -2816 -1792 0
v -3072 -2048 0
v -3328 -2048 0
v -3328 -1792 0
v -3072 -1792 0
v -3328 -2048 0
v -3584 -2048 0
v -3584 -1792 0
v -3328 -1792 0
v -3584 -2048 0
v -3840 -2048 0
v -3840 -1792 0
v -3584 -1792 0
v -3840 -2048 0
v -4096 -2048 0
v -4096 -1792 0
v -3840 -1792 0
v -768 -2304 0
v -1024 -2304 0
v -1024 -2048 0
v -768 -2048 0
v -2048 -2816 0
v -2304 -2816 0
v -2304 -2560 0
v -2048 -2560 0
v -2304 -2816 0
v -2560 -2816 0
v -2560 -2560 0
v -2304 -2560 0
v -2560 -2816 0
v -2816 -2816 0
v -2816 -2560 0
v -2560 -2560 0
v -2816 -2816 0
v -3072 -2816 0
v -3072 -2560 0
v -2816 -2560 0
v -3072 -2816 0
v -3328 -2816 0
v -3328 -2560 0
v -3072 -2560 0
v -3328 -2816 0
v -3584 -2816 0
v -3584 -2560 0
v -3328 -2560 0
v -3584 -2816 0
v -3840 -2816 0
v -3840 -2560 0
v -3584 -2560 0
v -3840 -2816 0
v -4096 -2816 0
v -4096 -2560 0
v -3840 -2560 0

# Texture cooridinates (Count = 4)
vt 0 0
vt 1 0
vt 1 1
vt 0 1

# Normal
vn 0 0 -1

# Mesh description
g LevelSelectMap_mesh_0044

# Faces
f 1/1/1 2/2/1 3/3/1 4/4/1
f 5/1/1 6/2/1 7/3/1 8/4/1
f 9/1/1 10/2/1 11/3/1 12/4/1
f 13/1/1 14/2/1 15/3/1 16/4/1
f 17/1/1 18/2/1 19/3/1 20/4/1
f 21/1/1 22/2/1 23/3/1 24/4/1
f 25/1/1 26/2/1 27/3/1 28/4/1
f 29/1/1 30/2/1 31/3/1 32/4/1
f 33/1/1 34/2/1 35/3/1 36/4/1
f 37/1/1 38/2/1 39/3/1 40/4/1
f 41/1/1 42/2/1 43/3/1 44/4/1
f 45/1/1 46/2/1 47/3/1 48/4/1
f 49/1/1 50/2/1 51/3/1 52/4/1
f 53/1/1 54/2/1 55/3/1 56/4/1
f 57/1/1 58/2/1 59/3/1 60/4/1
f 61/1/1 62/2/1 63/3/1 64/4/1
f 65/1/1 66/2/1 67/3/1 68/4/1
f 69/1/1 70/2/1 71/3/1 72/4/1
f 73/1/1 74/2/1 75/3/1 76/4/1
f 77/1/1 78/2/1 79/3/1 80/4/1
f 81/1/1 82/2/1 83/3/1 84/4/1
f 85/1/1 86/2/1 87/3/1 88/4/1
f 89/1/1 90/2/1 91/3/1 92/4/1

