# Tiled2Unity generated file. Do not modify by hand.
# Wavefront file for 'SnowMap1_mesh_0004.obj'

# Vertices (Count = 12)
v -3072 -512 0
v -3328 -512 0
v -3328 -256 0
v -3072 -256 0
v -1024 -1024 0
v -1280 -1024 0
v -1280 -768 0
v -1024 -768 0
v -2048 -1024 0
v -2304 -1024 0
v -2304 -768 0
v -2048 -768 0

# Texture cooridinates (Count = 4)
vt 0 0
vt 1 0
vt 1 1
vt 0 1

# Normal
vn 0 0 -1

# Mesh description
g SnowMap1_mesh_0004

# Faces
f 1/1/1 2/2/1 3/3/1 4/4/1
f 5/1/1 6/2/1 7/3/1 8/4/1
f 9/1/1 10/2/1 11/3/1 12/4/1

