# Tiled2Unity generated file. Do not modify by hand.
# Wavefront file for 'GrassMap3_mesh_0009.obj'

# Vertices (Count = 136)
v -2816 -256 0
v -2966 -256 0
v -2966 -31 0
v -2816 -31 0
v -3072 -256 0
v -3222 -256 0
v -3222 -31 0
v -3072 -31 0
v -3328 -256 0
v -3478 -256 0
v -3478 -31 0
v -3328 -31 0
v -3584 -256 0
v -3734 -256 0
v -3734 -31 0
v -3584 -31 0
v -3072 -768 0
v -3222 -768 0
v -3222 -543 0
v -3072 -543 0
v -3328 -768 0
v -3478 -768 0
v -3478 -543 0
v -3328 -543 0
v -3584 -768 0
v -3734 -768 0
v -3734 -543 0
v -3584 -543 0
v -3584 -1024 0
v -3734 -1024 0
v -3734 -799 0
v -3584 -799 0
v -3584 -1280 0
v -3734 -1280 0
v -3734 -1055 0
v -3584 -1055 0
v -3072 -1536 0
v -3222 -1536 0
v -3222 -1311 0
v -3072 -1311 0
v -3328 -1536 0
v -3478 -1536 0
v -3478 -1311 0
v -3328 -1311 0
v -3584 -1536 0
v -3734 -1536 0
v -3734 -1311 0
v -3584 -1311 0
v -2816 -2048 0
v -2966 -2048 0
v -2966 -1823 0
v -2816 -1823 0
v -3072 -2048 0
v -3222 -2048 0
v -3222 -1823 0
v -3072 -1823 0
v -3328 -2048 0
v -3478 -2048 0
v -3478 -1823 0
v -3328 -1823 0
v -3584 -2048 0
v -3734 -2048 0
v -3734 -1823 0
v -3584 -1823 0
v -2816 -2304 0
v -2966 -2304 0
v -2966 -2079 0
v -2816 -2079 0
v -3072 -2304 0
v -3222 -2304 0
v -3222 -2079 0
v -3072 -2079 0
v -3328 -2304 0
v -3478 -2304 0
v -3478 -2079 0
v -3328 -2079 0
v -3584 -2304 0
v -3734 -2304 0
v -3734 -2079 0
v -3584 -2079 0
v -3072 -2560 0
v -3222 -2560 0
v -3222 -2335 0
v -3072 -2335 0
v -3328 -2560 0
v -3478 -2560 0
v -3478 -2335 0
v -3328 -2335 0
v -3584 -2560 0
v -3734 -2560 0
v -3734 -2335 0
v -3584 -2335 0
v -3072 -2816 0
v -3222 -2816 0
v -3222 -2591 0
v -3072 -2591 0
v -3328 -2816 0
v -3478 -2816 0
v -3478 -2591 0
v -3328 -2591 0
v -3584 -2816 0
v -3734 -2816 0
v -3734 -2591 0
v -3584 -2591 0
v -3072 -3072 0
v -3222 -3072 0
v -3222 -2847 0
v -3072 -2847 0
v -3328 -3072 0
v -3478 -3072 0
v -3478 -2847 0
v -3328 -2847 0
v -3584 -3072 0
v -3734 -3072 0
v -3734 -2847 0
v -3584 -2847 0
v -3072 -3328 0
v -3222 -3328 0
v -3222 -3103 0
v -3072 -3103 0
v -3328 -3328 0
v -3478 -3328 0
v -3478 -3103 0
v -3328 -3103 0
v -3584 -3328 0
v -3734 -3328 0
v -3734 -3103 0
v -3584 -3103 0
v -3328 -3584 0
v -3478 -3584 0
v -3478 -3359 0
v -3328 -3359 0
v -3584 -3584 0
v -3734 -3584 0
v -3734 -3359 0
v -3584 -3359 0

# Texture cooridinates (Count = 4)
vt 0 0
vt 1 0
vt 1 1
vt 0 1

# Normal
vn 0 0 -1

# Mesh description
g GrassMap3_mesh_0009

# Faces
f 1/1/1 2/2/1 3/3/1 4/4/1
f 5/1/1 6/2/1 7/3/1 8/4/1
f 9/1/1 10/2/1 11/3/1 12/4/1
f 13/1/1 14/2/1 15/3/1 16/4/1
f 17/1/1 18/2/1 19/3/1 20/4/1
f 21/1/1 22/2/1 23/3/1 24/4/1
f 25/1/1 26/2/1 27/3/1 28/4/1
f 29/1/1 30/2/1 31/3/1 32/4/1
f 33/1/1 34/2/1 35/3/1 36/4/1
f 37/1/1 38/2/1 39/3/1 40/4/1
f 41/1/1 42/2/1 43/3/1 44/4/1
f 45/1/1 46/2/1 47/3/1 48/4/1
f 49/1/1 50/2/1 51/3/1 52/4/1
f 53/1/1 54/2/1 55/3/1 56/4/1
f 57/1/1 58/2/1 59/3/1 60/4/1
f 61/1/1 62/2/1 63/3/1 64/4/1
f 65/1/1 66/2/1 67/3/1 68/4/1
f 69/1/1 70/2/1 71/3/1 72/4/1
f 73/1/1 74/2/1 75/3/1 76/4/1
f 77/1/1 78/2/1 79/3/1 80/4/1
f 81/1/1 82/2/1 83/3/1 84/4/1
f 85/1/1 86/2/1 87/3/1 88/4/1
f 89/1/1 90/2/1 91/3/1 92/4/1
f 93/1/1 94/2/1 95/3/1 96/4/1
f 97/1/1 98/2/1 99/3/1 100/4/1
f 101/1/1 102/2/1 103/3/1 104/4/1
f 105/1/1 106/2/1 107/3/1 108/4/1
f 109/1/1 110/2/1 111/3/1 112/4/1
f 113/1/1 114/2/1 115/3/1 116/4/1
f 117/1/1 118/2/1 119/3/1 120/4/1
f 121/1/1 122/2/1 123/3/1 124/4/1
f 125/1/1 126/2/1 127/3/1 128/4/1
f 129/1/1 130/2/1 131/3/1 132/4/1
f 133/1/1 134/2/1 135/3/1 136/4/1

