# Tiled2Unity generated file. Do not modify by hand.
# Wavefront file for 'GrassMap5_mesh_0006.obj'

# Vertices (Count = 20)
v -3072 -512 0
v -3328 -512 0
v -3328 -256 0
v -3072 -256 0
v -3328 -768 0
v -3584 -768 0
v -3584 -512 0
v -3328 -512 0
v -2816 -1024 0
v -3072 -1024 0
v -3072 -768 0
v -2816 -768 0
v -3584 -1024 0
v -3840 -1024 0
v -3840 -768 0
v -3584 -768 0
v -512 -1536 0
v -768 -1536 0
v -768 -1280 0
v -512 -1280 0

# Texture cooridinates (Count = 4)
vt 0 0
vt 1 0
vt 1 1
vt 0 1

# Normal
vn 0 0 -1

# Mesh description
g GrassMap5_mesh_0006

# Faces
f 1/1/1 2/2/1 3/3/1 4/4/1
f 5/1/1 6/2/1 7/3/1 8/4/1
f 9/1/1 10/2/1 11/3/1 12/4/1
f 13/1/1 14/2/1 15/3/1 16/4/1
f 17/1/1 18/2/1 19/3/1 20/4/1

