# Tiled2Unity generated file. Do not modify by hand.
# Wavefront file for 'GrassMap5_mesh_0003.obj'

# Vertices (Count = 12)
v 0 -1024 0
v -245 -1024 0
v -245 -919 0
v 0 -919 0
v -2816 -1536 0
v -3061 -1536 0
v -3061 -1431 0
v -2816 -1431 0
v -1536 -2048 0
v -1781 -2048 0
v -1781 -1943 0
v -1536 -1943 0

# Texture cooridinates (Count = 4)
vt 0 0
vt 1 0
vt 1 1
vt 0 1

# Normal
vn 0 0 -1

# Mesh description
g GrassMap5_mesh_0003

# Faces
f 1/1/1 2/2/1 3/3/1 4/4/1
f 5/1/1 6/2/1 7/3/1 8/4/1
f 9/1/1 10/2/1 11/3/1 12/4/1

