# Tiled2Unity generated file. Do not modify by hand.
# Wavefront file for 'GrassMap1_mesh_0008.obj'

# Vertices (Count = 12)
v -1024 -1280 0
v -1280 -1280 0
v -1280 -1024 0
v -1024 -1024 0
v -2048 -1280 0
v -2304 -1280 0
v -2304 -1024 0
v -2048 -1024 0
v -256 -1792 0
v -512 -1792 0
v -512 -1536 0
v -256 -1536 0

# Texture cooridinates (Count = 4)
vt 0 0
vt 1 0
vt 1 1
vt 0 1

# Normal
vn 0 0 -1

# Mesh description
g GrassMap1_mesh_0008

# Faces
f 1/1/1 2/2/1 3/3/1 4/4/1
f 5/1/1 6/2/1 7/3/1 8/4/1
f 9/1/1 10/2/1 11/3/1 12/4/1

