# Tiled2Unity generated file. Do not modify by hand.
# Wavefront file for 'GrassMap1_mesh_0007.obj'

# Vertices (Count = 56)
v -3072 -768 0
v -3328 -768 0
v -3328 -512 0
v -3072 -512 0
v -2048 -1024 0
v -2304 -1024 0
v -2304 -768 0
v -2048 -768 0
v -2816 -1024 0
v -3072 -1024 0
v -3072 -768 0
v -2816 -768 0
v -3584 -1024 0
v -3840 -1024 0
v -3840 -768 0
v -3584 -768 0
v -2560 -1280 0
v -2816 -1280 0
v -2816 -1024 0
v -2560 -1024 0
v -3328 -1280 0
v -3584 -1280 0
v -3584 -1024 0
v -3328 -1024 0
v -2304 -1536 0
v -2560 -1536 0
v -2560 -1280 0
v -2304 -1280 0
v -3072 -1536 0
v -3328 -1536 0
v -3328 -1280 0
v -3072 -1280 0
v -2816 -1792 0
v -3072 -1792 0
v -3072 -1536 0
v -2816 -1536 0
v -4096 -1792 0
v -4352 -1792 0
v -4352 -1536 0
v -4096 -1536 0
v -2560 -2048 0
v -2816 -2048 0
v -2816 -1792 0
v -2560 -1792 0
v -3840 -2048 0
v -4096 -2048 0
v -4096 -1792 0
v -3840 -1792 0
v -3584 -2304 0
v -3840 -2304 0
v -3840 -2048 0
v -3584 -2048 0
v -3328 -2560 0
v -3584 -2560 0
v -3584 -2304 0
v -3328 -2304 0

# Texture cooridinates (Count = 4)
vt 0 0
vt 1 0
vt 1 1
vt 0 1

# Normal
vn 0 0 -1

# Mesh description
g GrassMap1_mesh_0007

# Faces
f 1/1/1 2/2/1 3/3/1 4/4/1
f 5/1/1 6/2/1 7/3/1 8/4/1
f 9/1/1 10/2/1 11/3/1 12/4/1
f 13/1/1 14/2/1 15/3/1 16/4/1
f 17/1/1 18/2/1 19/3/1 20/4/1
f 21/1/1 22/2/1 23/3/1 24/4/1
f 25/1/1 26/2/1 27/3/1 28/4/1
f 29/1/1 30/2/1 31/3/1 32/4/1
f 33/1/1 34/2/1 35/3/1 36/4/1
f 37/1/1 38/2/1 39/3/1 40/4/1
f 41/1/1 42/2/1 43/3/1 44/4/1
f 45/1/1 46/2/1 47/3/1 48/4/1
f 49/1/1 50/2/1 51/3/1 52/4/1
f 53/1/1 54/2/1 55/3/1 56/4/1

